<svg id="Layer_1" data-name="Layer 1" xmlns="http://www.w3.org/2000/svg" viewBox="0 0 1920 1080"><defs><style>.cls-1{fill:#f2f2f2;}.cls-2{opacity:0.05;}.cls-3{opacity:0.7;font-family:Montserrat-Regular, Montserrat;}.cls-3,.cls-37,.cls-41{font-size:20px;}.cls-4{letter-spacing:0em;}.cls-5{letter-spacing:-0.06em;}.cls-6{letter-spacing:-0.01em;}.cls-7{letter-spacing:-0.03em;}.cls-8{letter-spacing:-0.01em;}.cls-9{letter-spacing:0em;}.cls-10{letter-spacing:0em;}.cls-11{letter-spacing:0em;}.cls-12{letter-spacing:-0.01em;}.cls-13{letter-spacing:0.02em;}.cls-14{letter-spacing:0em;}.cls-15{letter-spacing:-0.02em;}.cls-16{letter-spacing:-0.01em;}.cls-17{letter-spacing:-0.02em;}.cls-18{letter-spacing:-0.01em;}.cls-19{letter-spacing:-0.02em;}.cls-20{letter-spacing:0em;}.cls-21{letter-spacing:0em;}.cls-22{letter-spacing:0.01em;}.cls-23{letter-spacing:0.01em;}.cls-24{letter-spacing:-0.03em;}.cls-25{letter-spacing:-0.01em;}.cls-26{letter-spacing:-0.02em;}.cls-27{letter-spacing:-0.02em;}.cls-28{letter-spacing:-0.01em;}.cls-29{letter-spacing:-0.02em;}.cls-30{font-size:70px;}.cls-30,.cls-37{font-family:Montserrat-Bold, Montserrat;font-weight:700;}.cls-31{letter-spacing:0.01em;}.cls-32{letter-spacing:-0.01em;}.cls-33{letter-spacing:0.01em;}.cls-34{letter-spacing:0.01em;}.cls-35{letter-spacing:0em;}.cls-36{letter-spacing:-0.01em;}.cls-38{letter-spacing:-0.01em;}.cls-39{letter-spacing:-0.02em;}.cls-40{letter-spacing:0.01em;}.cls-41{font-family:Montserrat-Light, Montserrat;font-weight:300;letter-spacing:0.09em;}.cls-42{letter-spacing:0.07em;}.cls-43{letter-spacing:0.08em;}</style></defs><title>webpage [Recovered]</title><path class="cls-1" d="M1920,1079.5H0V-.5H1920Z"/><rect class="cls-2" x="949.62" y="136.54" width="644" height="749"/><text class="cls-3" transform="translate(203.62 379.14)">My na<tspan class="cls-4" x="60.52" y="0">m</tspan><tspan x="81.78" y="0">e is </tspan><tspan class="cls-5" x="119.5" y="0">T</tspan><tspan x="129.88" y="0">eodor Ant</tspan><tspan class="cls-4" x="229.85" y="0">h</tspan><tspan x="243.43" y="0">o</tspan><tspan class="cls-6" x="255.97" y="0">n</tspan><tspan class="cls-7" x="269.31" y="0">y</tspan><tspan x="279.47" y="0">, a</tspan><tspan class="cls-4" x="300.75" y="0">n</tspan><tspan x="314.33" y="0">d I’m 19 </tspan><tspan class="cls-8" x="0" y="24">ye</tspan><tspan x="22.32" y="24">a</tspan><tspan class="cls-9" x="34.12" y="24">r</tspan><tspan class="cls-10" x="42.06" y="24">s old, a</tspan><tspan class="cls-11" x="109.84" y="24">n</tspan><tspan x="123.42" y="24">d I li</tspan><tspan class="cls-8" x="164.26" y="24">v</tspan><tspan x="174.8" y="24">e in t</tspan><tspan class="cls-4" x="224.39" y="24">h</tspan><tspan x="237.97" y="24">e Net</tspan><tspan class="cls-4" x="291.75" y="24">h</tspan><tspan x="305.33" y="24">e</tspan><tspan class="cls-12" x="317.41" y="24">r</tspan><tspan x="325.27" y="24">la</tspan><tspan class="cls-4" x="342.45" y="24">n</tspan><tspan x="356.03" y="24">ds. I</tspan><tspan class="cls-13" x="394.89" y="24">’</tspan><tspan class="cls-8" x="399.49" y="24">v</tspan><tspan x="410.03" y="24">e </tspan><tspan x="0" y="48">been </tspan><tspan class="cls-14" x="56.5" y="48">p</tspan><tspan x="70" y="48">assiona</tspan><tspan class="cls-15" x="144.62" y="48">t</tspan><tspan x="152.36" y="48">ed about </tspan><tspan class="cls-8" x="247.96" y="48">w</tspan><tspan x="265.24" y="48">ebdesign si</tspan><tspan class="cls-4" x="379.33" y="48">n</tspan><tspan class="cls-16" x="392.91" y="48">c</tspan><tspan x="403.99" y="48">e I </tspan><tspan class="cls-17" x="0" y="72">w</tspan><tspan x="17.26" y="72">as </tspan><tspan class="cls-8" x="44.08" y="72">y</tspan><tspan x="54.62" y="72">ou</tspan><tspan class="cls-4" x="80.62" y="72">n</tspan><tspan x="94.2" y="72">g, t</tspan><tspan class="cls-4" x="125.52" y="72">h</tspan><tspan x="139.1" y="72">e p</tspan><tspan class="cls-18" x="169.98" y="72">r</tspan><tspan x="177.74" y="72">o</tspan><tspan class="cls-16" x="190.28" y="72">c</tspan><tspan x="201.36" y="72">ess of a p</tspan><tspan class="cls-18" x="293.39" y="72">r</tspan><tspan x="301.15" y="72">o</tspan><tspan class="cls-16" x="313.69" y="72">f</tspan><tspan x="320.29" y="72">essional </tspan><tspan class="cls-8" x="0" y="96">w</tspan><tspan x="17.28" y="96">ebdesign </tspan><tspan class="cls-18" x="116.22" y="96">r</tspan><tspan class="cls-19" x="123.98" y="96">e</tspan><tspan x="135.76" y="96">ally </tspan><tspan class="cls-6" x="174.4" y="96">f</tspan><tspan x="180.98" y="96">ascina</tspan><tspan class="cls-15" x="244.54" y="96">t</tspan><tspan x="252.27" y="96">ed </tspan><tspan class="cls-4" x="283.15" y="96">m</tspan><tspan x="304.41" y="96">e a</tspan><tspan class="cls-4" x="333.53" y="96">n</tspan><tspan x="347.11" y="96">d I </tspan><tspan x="0" y="120">beca</tspan><tspan class="cls-4" x="48.7" y="120">m</tspan><tspan x="69.96" y="120">e </tspan><tspan class="cls-4" x="87.28" y="120">m</tspan><tspan x="108.54" y="120">o</tspan><tspan class="cls-18" x="121.08" y="120">r</tspan><tspan x="128.84" y="120">e int</tspan><tspan class="cls-12" x="173.2" y="120">r</tspan><tspan x="181.06" y="120">igued about flat &amp; </tspan><tspan class="cls-4" x="0" y="144">m</tspan><tspan x="21.26" y="144">ode</tspan><tspan class="cls-12" x="59.44" y="144">r</tspan><tspan x="67.3" y="144">n design.</tspan><tspan class="cls-20" x="0" y="192">A</tspan><tspan x="14.24" y="192">s a </tspan><tspan class="cls-4" x="46.3" y="192">h</tspan><tspan x="59.88" y="192">ob</tspan><tspan class="cls-8" x="85.98" y="192">b</tspan><tspan x="99.24" y="192">y I l</tspan><tspan class="cls-8" x="131.98" y="192">ov</tspan><tspan x="154.76" y="192">e </tspan><tspan class="cls-16" x="172.08" y="192">c</tspan><tspan x="183.16" y="192">odi</tspan><tspan class="cls-4" x="214.64" y="192">n</tspan><tspan x="228.22" y="192">g si</tspan><tspan class="cls-4" x="262.34" y="192">n</tspan><tspan class="cls-16" x="275.92" y="192">c</tspan><tspan x="287" y="192">e it gi</tspan><tspan class="cls-8" x="342.15" y="192">v</tspan><tspan class="cls-21" x="352.69" y="192">es </tspan><tspan class="cls-4" x="379.79" y="192">m</tspan><tspan x="401.05" y="192">e </tspan><tspan x="0" y="216">t</tspan><tspan class="cls-4" x="8.12" y="216">h</tspan><tspan x="21.7" y="216">e p</tspan><tspan class="cls-19" x="52.58" y="216">ow</tspan><tspan x="82.1" y="216">er </tspan><tspan class="cls-15" x="107.44" y="216">t</tspan><tspan x="115.18" y="216">o c</tspan><tspan class="cls-18" x="144.22" y="216">r</tspan><tspan class="cls-8" x="151.98" y="216">e</tspan><tspan x="163.76" y="216">a</tspan><tspan class="cls-15" x="175.56" y="216">t</tspan><tspan x="183.3" y="216">e so</tspan><tspan class="cls-11" x="222.94" y="216">m</tspan><tspan class="cls-10" x="244.19" y="216">ethi</tspan><tspan class="cls-11" x="283.31" y="216">n</tspan><tspan x="296.89" y="216">g useful, I </tspan><tspan x="0" y="240">h</tspan><tspan class="cls-6" x="13.54" y="240">a</tspan><tspan class="cls-19" x="25.14" y="240">v</tspan><tspan x="35.68" y="240">e </tspan><tspan class="cls-8" x="53" y="240">e</tspan><tspan x="64.78" y="240">xpe</tspan><tspan class="cls-12" x="101.1" y="240">r</tspan><tspan x="108.96" y="240">ie</tspan><tspan class="cls-4" x="126.42" y="240">n</tspan><tspan class="cls-16" x="140" y="240">c</tspan><tspan x="151.08" y="240">es in J</tspan><tspan class="cls-6" x="212.35" y="240">a</tspan><tspan class="cls-17" x="223.95" y="240">v</tspan><tspan x="234.47" y="240">asc</tspan><tspan class="cls-12" x="267.31" y="240">r</tspan><tspan x="275.17" y="240">ip</tspan><tspan class="cls-22" x="294.11" y="240">t</tspan><tspan x="302.43" y="240">, JQue</tspan><tspan class="cls-23" x="364.25" y="240">r</tspan><tspan class="cls-24" x="372.57" y="240">y</tspan><tspan class="cls-21" x="382.73" y="240">, </tspan><tspan class="cls-6" x="0" y="264">P</tspan><tspan x="14.16" y="264">HP a</tspan><tspan class="cls-11" x="61.82" y="264">n</tspan><tspan class="cls-10" x="75.4" y="264">d </tspan><tspan class="cls-25" x="94.2" y="264">P</tspan><tspan class="cls-23" x="108.4" y="264">y</tspan><tspan x="119.54" y="264">t</tspan><tspan class="cls-4" x="127.66" y="264">h</tspan><tspan x="141.24" y="264">on. I</tspan><tspan class="cls-13" x="182.84" y="264">’</tspan><tspan class="cls-8" x="187.44" y="264">v</tspan><tspan x="197.98" y="264">e been </tspan><tspan class="cls-16" x="271.79" y="264">c</tspan><tspan x="282.87" y="264">ombini</tspan><tspan class="cls-4" x="354.49" y="264">n</tspan><tspan x="368.07" y="264">g this </tspan><tspan class="cls-25" x="0" y="288">k</tspan><tspan class="cls-11" x="11.86" y="288">n</tspan><tspan class="cls-8" x="25.44" y="288">o</tspan><tspan x="37.68" y="288">wledge with </tspan><tspan class="cls-6" x="167.18" y="288">m</tspan><tspan x="188.2" y="288">y </tspan><tspan class="cls-19" x="204.28" y="288">w</tspan><tspan x="221.56" y="288">ebdesign s</tspan><tspan class="cls-25" x="330.27" y="288">k</tspan><tspan x="342.13" y="288">ills </tspan><tspan class="cls-15" x="373.29" y="288">t</tspan><tspan x="381.03" y="288">o </tspan><tspan x="0" y="312">ma</tspan><tspan class="cls-26" x="33.02" y="312">k</tspan><tspan x="44.62" y="312">e </tspan><tspan class="cls-6" x="61.94" y="312">m</tspan><tspan x="82.96" y="312">y design </tspan><tspan class="cls-16" x="172.34" y="312">c</tspan><tspan x="183.42" y="312">o</tspan><tspan class="cls-11" x="195.96" y="312">m</tspan><tspan x="217.22" y="312">e </tspan><tspan class="cls-15" x="234.54" y="312">t</tspan><tspan x="242.28" y="312">o li</tspan><tspan class="cls-16" x="270.81" y="312">f</tspan><tspan x="277.42" y="312">e.</tspan><tspan class="cls-20" x="0" y="360">A</tspan><tspan x="14.24" y="360">t t</tspan><tspan class="cls-4" x="35.72" y="360">h</tspan><tspan class="cls-21" x="49.3" y="360">e </tspan><tspan class="cls-11" x="66.62" y="360">m</tspan><tspan x="87.88" y="360">o</tspan><tspan class="cls-4" x="100.42" y="360">m</tspan><tspan x="121.68" y="360">ent I’m studyi</tspan><tspan class="cls-4" x="258.53" y="360">n</tspan><tspan x="272.11" y="360">g Media Design </tspan><tspan x="0" y="384">at t</tspan><tspan class="cls-4" x="33.28" y="384">h</tspan><tspan x="46.86" y="384">e De</tspan><tspan class="cls-4" x="92.78" y="384">l</tspan><tspan x="98.2" y="384">tion </tspan><tspan class="cls-27" x="143.02" y="384">C</tspan><tspan x="156.94" y="384">ollege in </tspan><tspan class="cls-19" x="247.51" y="384">Zw</tspan><tspan x="277.51" y="384">olle, it</tspan><tspan class="cls-17" x="335.87" y="384">’</tspan><tspan x="339.79" y="384">s </tspan><tspan class="cls-6" x="354.81" y="384">m</tspan><tspan x="375.83" y="384">y </tspan><tspan x="0" y="408">thi</tspan><tspan class="cls-18" x="27.04" y="408">r</tspan><tspan x="34.8" y="408">d </tspan><tspan class="cls-8" x="53.6" y="408">ye</tspan><tspan x="75.92" y="408">ar a</tspan><tspan class="cls-4" x="112.78" y="408">n</tspan><tspan x="126.36" y="408">d cu</tspan><tspan class="cls-25" x="169.88" y="408">r</tspan><tspan class="cls-18" x="177.74" y="408">r</tspan><tspan x="185.5" y="408">ently loo</tspan><tspan class="cls-12" x="271.15" y="408">k</tspan><tspan x="283.01" y="408">i</tspan><tspan class="cls-4" x="288.39" y="408">n</tspan><tspan x="301.97" y="408">g </tspan><tspan class="cls-16" x="320.93" y="408">f</tspan><tspan x="327.53" y="408">or an in</tspan><tspan x="402.83" y="408">-</tspan><tspan class="cls-15" x="0" y="432">t</tspan><tspan x="7.74" y="432">e</tspan><tspan class="cls-12" x="19.82" y="432">r</tspan><tspan x="27.68" y="432">nship at a </tspan><tspan class="cls-16" x="130.92" y="432">c</tspan><tspan x="142" y="432">om</tspan><tspan class="cls-14" x="175.76" y="432">p</tspan><tspan x="189.26" y="432">a</tspan><tspan class="cls-28" x="201.06" y="432">n</tspan><tspan x="214.4" y="432">y as a desig</tspan><tspan class="cls-4" x="328.85" y="432">n</tspan><tspan x="342.43" y="432">er a</tspan><tspan class="cls-4" x="379.57" y="432">n</tspan><tspan x="393.15" y="432">d a </tspan><tspan x="0" y="456">fu</tspan><tspan class="cls-23" x="20.24" y="456">r</tspan><tspan x="28.56" y="456">t</tspan><tspan class="cls-4" x="36.68" y="456">h</tspan><tspan x="50.26" y="456">er ca</tspan><tspan class="cls-18" x="98.66" y="456">r</tspan><tspan x="106.42" y="456">eer in Media design. Also I’m bi</tspan><tspan x="415.65" y="456">-</tspan><tspan x="0" y="480">li</tspan><tspan class="cls-4" x="10.76" y="480">n</tspan><tspan x="24.34" y="480">gual both E</tspan><tspan class="cls-4" x="140.32" y="480">n</tspan><tspan x="153.9" y="480">glish a</tspan><tspan class="cls-4" x="218.74" y="480">n</tspan><tspan x="232.31" y="480">d Du</tspan><tspan class="cls-29" x="281.09" y="480">t</tspan><tspan class="cls-25" x="288.83" y="480">c</tspan><tspan x="299.93" y="480">h.</tspan></text><text class="cls-30" transform="translate(203.62 202.45)">Minimalis<tspan class="cls-31" x="353.29" y="0">t</tspan><tspan x="384.44" y="0">, </tspan><tspan class="cls-32" x="422.58" y="0">U</tspan><tspan class="cls-33" x="477.04" y="0">X</tspan><tspan x="528" y="0">/UI desig</tspan><tspan class="cls-34" x="853.22" y="0">n</tspan><tspan class="cls-35" x="902.01" y="0">e</tspan><tspan class="cls-36" x="946.18" y="0">r</tspan><tspan x="975.65" y="0">,</tspan><tspan x="0" y="84">student &amp; a polymath</tspan></text><text class="cls-37" transform="translate(203.38 938.14)">Sc<tspan class="cls-38" x="24.58" y="0">r</tspan><tspan x="33.02" y="0">oll d</tspan><tspan class="cls-19" x="77.66" y="0">o</tspan><tspan x="90.46" y="0">wn </tspan><tspan class="cls-39" x="128.68" y="0">t</tspan><tspan x="137.04" y="0">o vi</tspan><tspan class="cls-6" x="173.78" y="0">e</tspan><tspan x="186.2" y="0">w </tspan><tspan class="cls-6" x="210.6" y="0">m</tspan><tspan x="231.38" y="0">y </tspan><tspan class="cls-8" x="249" y="0">w</tspan><tspan x="267.44" y="0">o</tspan><tspan class="cls-9" x="280.54" y="0">r</tspan><tspan class="cls-40" x="289.08" y="0">k</tspan><tspan x="302.48" y="0">.</tspan></text><rect x="1721.53" y="448.99" width="98.74" height="7.41" transform="translate(2223.6 -1318.21) rotate(90)"/><path d="M1763.73,113.25l3.65,1.63a11,11,0,0,0-1.73,5.77c0,2,.58,2.85,1.43,2.85,2.77,0,.75-10,7.25-10,3.12,0,5.67,2.55,5.67,7.75a13.22,13.22,0,0,1-1.52,6.35l-3.68-1.52a10.37,10.37,0,0,0,1.35-4.85c0-2.08-.7-2.83-1.57-2.83-2.68,0-.68,9.93-7.13,9.93-3,0-5.65-2.55-5.65-7.75A13.79,13.79,0,0,1,1763.73,113.25Z"/><path d="M1770.9,132.25c5.33,0,9.1,4.08,9.1,9.63a9.24,9.24,0,0,1-3.3,7.52l-2.85-3.15a5.16,5.16,0,0,0,2.05-4.12,5,5,0,0,0-10,0,5.19,5.19,0,0,0,2,4.12l-2.85,3.15a9.27,9.27,0,0,1-3.3-7.52C1761.8,136.33,1765.58,132.25,1770.9,132.25Z"/><path d="M1766.8,161.75v-2.7h-4.65v-5h17.5v8c0,4.77-2.47,7.77-6.47,7.77a5.81,5.81,0,0,1-5.53-3.42l-5.5,3.77v-5.3Zm9,.05v-2.75h-5.12v2.75c0,2,.95,3.07,2.55,3.07S1775.75,163.85,1775.75,161.8Z"/><path d="M1770.9,174.2c5.25,0,9.1,4.13,9.1,9.72s-3.85,9.73-9.1,9.73-9.1-4.13-9.1-9.73S1765.65,174.2,1770.9,174.2Zm0,14.45a4.73,4.73,0,1,0-5-4.73A4.68,4.68,0,0,0,1770.9,188.65Z"/><path d="M1779.65,198.75v4.95h-13.57v8.35h-3.93v-13.3Z"/><path d="M1779.65,216.5v4.95h-13.57v8.35h-3.93V216.5Z"/><path d="M1779.65,244v8.27c0,5.8-3.37,9.77-8.75,9.77s-8.75-4-8.75-9.77V244Zm-13.55,8.07c0,3,1.78,5,4.8,5s4.8-2,4.8-5V249h-9.6Z"/><path d="M1770.9,266.28c5.25,0,9.1,4.12,9.1,9.72s-3.85,9.72-9.1,9.72-9.1-4.12-9.1-9.72S1765.65,266.28,1770.9,266.28Zm0,14.44a4.73,4.73,0,1,0-5-4.72A4.68,4.68,0,0,0,1770.9,280.72Z"/><path d="M1779.65,317.67l-17.5-5.67v-5.3l10.65-3.35-10.65-3.5v-5.3l17.5-5.67V294l-11.17,3.52,11.17,3.7v4.55l-11.27,3.52,11.27,3.68Z"/><path d="M1779.65,338.6h-17.5v-4.08l9.33-7.72h-9.33V322h17.5V326l-9.32,7.73h9.32Z"/><text class="cls-41" transform="translate(1730.25 113.41) rotate(90)">ABO<tspan class="cls-42" x="51" y="0">U</tspan><tspan class="cls-43" x="68.28" y="0">T ME</tspan></text></svg>