<?xml version="1.0" encoding="utf-8"?>
<!-- Generator: Adobe Illustrator 23.0.1, SVG Export Plug-In . SVG Version: 6.00 Build 0)  -->
<svg version="1.1" id="Layer_1" xmlns="http://www.w3.org/2000/svg" xmlns:xlink="http://www.w3.org/1999/xlink" x="0px" y="0px"
	 viewBox="0 0 47.5 388.8" style="enable-background:new 0 0 47.5 388.8;" xml:space="preserve">
<style type="text/css">
	.st0{opacity:0.1;fill:#F2F2F2;enable-background:new    ;}
	.st1{fill:#E6E6E6;}
	.st2{enable-background:new    ;}
</style>
<title>Asset 1</title>
<g>
	<g id="Layer_1-2">
		<g>
			<rect x="34.7" y="290.1" class="st0" width="7.4" height="98.7"/>
			<g>
				<path class="st1" d="M31.3,0l3.7,1.6c-1.1,1.7-1.7,3.7-1.7,5.8c0,2,0.6,2.8,1.4,2.8c2.8,0,0.7-9.9,7.3-9.9
					c3.1,0,5.7,2.5,5.7,7.8c0,2.2-0.5,4.4-1.5,6.3l-3.7-1.5c0.8-1.5,1.3-3.2,1.4-4.9c0-2.1-0.7-2.8-1.6-2.8c-2.7,0-0.7,9.9-7.1,9.9
					c-3,0-5.6-2.5-5.6-7.7C29.3,4.8,29.9,2.2,31.3,0z"/>
				<path class="st1" d="M38.5,19c5.3,0,9.1,4.1,9.1,9.6c0.1,2.9-1.1,5.7-3.3,7.5L41.4,33c1.3-1,2-2.5,2-4.1
					c0.1-2.6-1.9-4.8-4.5-4.9c-0.2,0-0.3,0-0.5,0c-2.6-0.2-4.8,1.8-5,4.4c0,0.2,0,0.3,0,0.5c0,1.6,0.8,3.2,2,4.1l-2.8,3.2
					c-2.2-1.9-3.4-4.6-3.3-7.5C29.4,23.1,33.1,19,38.5,19z"/>
				<path class="st1" d="M34.3,48.5v-2.7h-4.6v-5h17.5v8c0,4.8-2.5,7.8-6.5,7.8c-2.4,0.1-4.5-1.3-5.5-3.4L29.7,57v-5.3L34.3,48.5z
					 M43.3,48.5v-2.7h-5.2v2.8c0,2,1,3.1,2.6,3.1C42.3,51.6,43.3,50.6,43.3,48.5L43.3,48.5z"/>
				<path class="st1" d="M38.5,61c5.3,0,9.1,4.1,9.1,9.7s-3.8,9.7-9.1,9.7s-9.1-4.2-9.1-9.8S33.2,61,38.5,61z M38.5,75.4
					c2.6,0.1,4.8-1.9,4.9-4.5s-1.9-4.8-4.5-4.9c-0.1,0-0.3,0-0.4,0c-2.6-0.1-4.8,1.9-4.9,4.5c-0.1,2.6,1.9,4.8,4.5,4.9
					C38.2,75.5,38.3,75.5,38.5,75.4z"/>
				<path class="st1" d="M47.2,85.5v5H33.6v8.3h-3.9V85.5H47.2z"/>
				<path class="st1" d="M47.2,103.3v5H33.6v8.3h-3.9v-13.3H47.2z"/>
				<path class="st1" d="M47.2,130.8v8.3c0,5.8-3.4,9.8-8.8,9.8s-8.8-4-8.8-9.8v-8.3H47.2z M33.7,138.9c0,3,1.8,5,4.8,5s4.8-2,4.8-5
					v-3.1h-9.6V138.9z"/>
				<path class="st1" d="M38.5,153c5.3,0,9.1,4.1,9.1,9.7s-3.8,9.7-9.1,9.7s-9.1-4.1-9.1-9.7S33.2,153,38.5,153z M38.5,167.4
					c2.6,0.1,4.8-1.9,4.9-4.5s-1.9-4.8-4.5-4.9c-0.1,0-0.3,0-0.4,0c-2.6-0.1-4.8,1.9-4.9,4.5c-0.1,2.6,1.9,4.8,4.5,4.9
					C38.2,167.5,38.3,167.5,38.5,167.4z"/>
				<path class="st1" d="M47.2,204.4l-17.5-5.7v-5.3l10.6-3.4l-10.6-3.5v-5.3l17.5-5.7v5.1L36,184.3l11.2,3.8v4.5L35.9,196l11.3,3.7
					V204.4z"/>
				<path class="st1" d="M47.2,225.3H29.7v-4.1l9.3-7.7h-9.3v-4.8h17.5v4.1l-9.3,7.7h9.3V225.3z"/>
			</g>
		</g>
	</g>
</g>
<g class="st2">
	<path class="st1" d="M14.1,20.4l-14-4.7v-1.1l12.6-4.3L0.1,5.8V4.8l14-4.8v1.1L1.5,5.3l12.6,4.4v1L1.5,15.1l12.6,4.3V20.4z"/>
	<path class="st1" d="M7.1,23.6c4.1,0,7.1,3.1,7.1,7.3c0,4.2-3,7.3-7.1,7.3C3,38.2,0,35.1,0,30.9C0,26.7,3,23.6,7.1,23.6z M7.1,37.2
		c3.5,0,6.2-2.7,6.2-6.2c0-3.6-2.6-6.3-6.2-6.3c-3.5,0-6.2,2.7-6.2,6.3C0.9,34.5,3.6,37.2,7.1,37.2z"/>
	<path class="st1" d="M0.1,53.3l4.7-3.3c-0.1-0.4-0.1-0.9-0.1-1.4v-4H0.1v-1h14v5c0,3.5-1.8,5.6-4.7,5.6c-2.2,0-3.8-1.2-4.4-3.3
		l-4.9,3.5V53.3z M5.6,48.6c0,3,1.4,4.6,3.8,4.6c2.4,0,3.8-1.6,3.8-4.6v-4H5.6V48.6z"/>
	<path class="st1" d="M7,63.9l-3.2-3.1H0.1v-1h14v1h-9l9,8.7v1.2l-6.4-6.2l-7.6,6.6v-1.2L7,63.9z"/>
</g>
</svg>
