<svg xmlns="http://www.w3.org/2000/svg" viewBox="0 0 18.2 388.81">
  <defs>
    <style>
      .cls-1 {
        fill: #f2f2f2;
        opacity: 0.1;
      }

      .cls-2 {
        fill: #e6e6e6;
      }
    </style>
  </defs>
  <title>Asset 1</title>
  <g id="Layer_2" data-name="Layer 2">
    <g id="Layer_1-2" data-name="Layer 1">
      <g>
        <rect class="cls-1" x="-40.27" y="335.74" width="98.74" height="7.41" transform="translate(348.54 330.34) rotate(90)"/>
        <g>
          <path class="cls-2" d="M1.92,0,5.57,1.63A11.07,11.07,0,0,0,3.85,7.4c0,2,.57,2.85,1.42,2.85C8.05,10.25,6,.3,12.52.3c3.13,0,5.68,2.55,5.68,7.75a13.14,13.14,0,0,1-1.53,6.35L13,12.87A10.31,10.31,0,0,0,14.35,8c0-2.07-.7-2.82-1.58-2.82-2.67,0-.67,9.92-7.12,9.92C2.6,15.12,0,12.57,0,7.38A13.79,13.79,0,0,1,1.92,0Z"/>
          <path class="cls-2" d="M9.1,19c5.32,0,9.1,4.07,9.1,9.62a9.27,9.27,0,0,1-3.3,7.53L12.05,33a5.19,5.19,0,0,0,2-4.13A4.69,4.69,0,0,0,9.1,24a4.69,4.69,0,0,0-5,4.87A5.16,5.16,0,0,0,6.15,33L3.3,36.15A9.25,9.25,0,0,1,0,28.62C0,23.07,3.77,19,9.1,19Z"/>
          <path class="cls-2" d="M5,48.5V45.8H.35V40.85h17.5v8c0,4.77-2.48,7.77-6.48,7.77A5.81,5.81,0,0,1,5.85,53.2L.35,57v-5.3Zm9,0V45.8H8.82v2.75c0,2.05.95,3.07,2.55,3.07S14,50.6,14,48.55Z"/>
          <path class="cls-2" d="M9.1,61c5.25,0,9.1,4.12,9.1,9.72s-3.85,9.72-9.1,9.72S0,76.27,0,70.67,3.85,61,9.1,61Zm0,14.45A4.73,4.73,0,1,0,9.1,66a4.73,4.73,0,1,0,0,9.45Z"/>
          <path class="cls-2" d="M17.85,85.5v5H4.27V98.8H.35V85.5Z"/>
          <path class="cls-2" d="M17.85,103.25v5H4.27v8.34H.35V103.25Z"/>
          <path class="cls-2" d="M17.85,130.77v8.28c0,5.8-3.38,9.77-8.75,9.77s-8.75-4-8.75-9.77v-8.28ZM4.3,138.85c0,3,1.77,5,4.8,5s4.8-2,4.8-5v-3.13H4.3Z"/>
          <path class="cls-2" d="M9.1,153c5.25,0,9.1,4.13,9.1,9.73s-3.85,9.72-9.1,9.72S0,168.34,0,162.75,3.85,153,9.1,153Zm0,14.45a4.73,4.73,0,1,0,0-9.45,4.73,4.73,0,1,0,0,9.45Z"/>
          <path class="cls-2" d="M17.85,204.42.35,198.74v-5.29L11,190.1.35,186.6v-5.3l17.5-5.68v5.1L6.67,184.25,17.85,188v4.54L6.57,196l11.28,3.67Z"/>
          <path class="cls-2" d="M17.85,225.34H.35v-4.07l9.32-7.72H.35V208.7h17.5v4.07L8.52,220.5h9.33Z"/>
        </g>
      </g>
    </g>
  </g>
</svg>
