<svg id="Layer_1" data-name="Layer 1" xmlns="http://www.w3.org/2000/svg" viewBox="0 0 1920 1080"><defs><style>.cls-1{font-size:20px;font-family:Montserrat-Light, Montserrat;font-weight:300;letter-spacing:0.06em;}.cls-2{letter-spacing:0.09em;}.cls-3{opacity:0.1;}</style></defs><title>3</title><rect x="1721.53" y="448.99" width="98.74" height="7.41" transform="translate(2223.6 -1318.21) rotate(90)"/><path d="M1763.73,113.25l3.65,1.63a11,11,0,0,0-1.73,5.77c0,2,.58,2.85,1.43,2.85,2.77,0,.75-10,7.25-10,3.12,0,5.67,2.55,5.67,7.75a13.22,13.22,0,0,1-1.52,6.35l-3.68-1.52a10.37,10.37,0,0,0,1.35-4.85c0-2.08-.7-2.83-1.57-2.83-2.68,0-.68,9.93-7.13,9.93-3,0-5.65-2.55-5.65-7.75A13.79,13.79,0,0,1,1763.73,113.25Z"/><path d="M1770.9,132.25c5.33,0,9.1,4.08,9.1,9.63a9.24,9.24,0,0,1-3.3,7.52l-2.85-3.15a5.16,5.16,0,0,0,2.05-4.12,5,5,0,0,0-10,0,5.19,5.19,0,0,0,2,4.12l-2.85,3.15a9.27,9.27,0,0,1-3.3-7.52C1761.8,136.33,1765.58,132.25,1770.9,132.25Z"/><path d="M1766.8,161.75v-2.7h-4.65v-5h17.5v8c0,4.77-2.47,7.77-6.47,7.77a5.81,5.81,0,0,1-5.53-3.42l-5.5,3.77v-5.3Zm9,.05v-2.75h-5.12v2.75c0,2,.95,3.07,2.55,3.07S1775.75,163.85,1775.75,161.8Z"/><path d="M1770.9,174.2c5.25,0,9.1,4.13,9.1,9.72s-3.85,9.73-9.1,9.73-9.1-4.13-9.1-9.73S1765.65,174.2,1770.9,174.2Zm0,14.45a4.73,4.73,0,1,0-5-4.73A4.68,4.68,0,0,0,1770.9,188.65Z"/><path d="M1779.65,198.75v4.95h-13.57v8.35h-3.93v-13.3Z"/><path d="M1779.65,216.5v4.95h-13.57v8.35h-3.93V216.5Z"/><path d="M1779.65,244v8.27c0,5.8-3.37,9.77-8.75,9.77s-8.75-4-8.75-9.77V244Zm-13.55,8.07c0,3,1.78,5,4.8,5s4.8-2,4.8-5V249h-9.6Z"/><path d="M1770.9,266.28c5.25,0,9.1,4.12,9.1,9.72s-3.85,9.72-9.1,9.72-9.1-4.12-9.1-9.72S1765.65,266.28,1770.9,266.28Zm0,14.44a4.73,4.73,0,1,0-5-4.72A4.68,4.68,0,0,0,1770.9,280.72Z"/><path d="M1779.65,317.67l-17.5-5.67v-5.3l10.65-3.35-10.65-3.5v-5.3l17.5-5.67V294l-11.17,3.52,11.17,3.7v4.55l-11.27,3.52,11.27,3.68Z"/><path d="M1779.65,338.6h-17.5v-4.08l9.33-7.72h-9.33V322h17.5V326l-9.32,7.73h9.32Z"/><text class="cls-1" transform="translate(1730.25 113.41) rotate(90)">W<tspan class="cls-2" x="23.24" y="0">ORK</tspan></text><rect class="cls-3" x="414" y="112.5" width="335" height="281"/><rect class="cls-3" x="793" y="112.5" width="335" height="428"/><rect class="cls-3" x="1172" y="112.5" width="335" height="335"/><rect class="cls-3" x="414" y="438.5" width="335" height="281"/><rect class="cls-3" x="793" y="579.5" width="335" height="428"/><rect class="cls-3" x="1172" y="487.5" width="335" height="335"/><rect class="cls-3" x="414" y="765.5" width="335" height="281"/><rect class="cls-3" x="1172" y="859.5" width="335" height="335"/></svg>