<svg xmlns="http://www.w3.org/2000/svg" viewBox="0 0 944.57 1099.62"><defs><style>.cls-1{opacity:0.5;}.cls-2{fill:#fff;}</style></defs><title>Ster1</title><g id="Layer_2" data-name="Layer 2"><g id="Vecttor"><g id="Ster1" class="cls-1"><circle class="cls-2" cx="509.44" cy="757.76" r="4.94"/><circle class="cls-2" cx="592.05" cy="788.52" r="3.66"/><circle class="cls-2" cx="527.53" cy="822.92" r="8.97"/><circle class="cls-2" cx="599.98" cy="857.6" r="6.59"/><circle class="cls-2" cx="661.62" cy="825.05" r="10.81"/><circle class="cls-2" cx="588.82" cy="729.55" r="6.96"/><circle class="cls-2" cx="685.91" cy="761.72" r="4.76"/><circle class="cls-2" cx="501.02" cy="644.22" r="4.94"/><circle class="cls-2" cx="583.63" cy="674.98" r="3.66"/><circle class="cls-2" cx="519.11" cy="709.38" r="8.97"/><circle class="cls-2" cx="653.2" cy="711.5" r="10.81"/><circle class="cls-2" cx="585.65" cy="598.09" r="6.96"/><circle class="cls-2" cx="664" cy="645.68" r="4.76"/><circle class="cls-2" cx="709.92" cy="854.57" r="3.66"/><circle class="cls-2" cx="684.92" cy="929.06" r="10.81"/><circle class="cls-2" cx="767.62" cy="842" r="6.96"/><circle class="cls-2" cx="751.63" cy="929.25" r="4.76"/><circle class="cls-2" cx="833.42" cy="758.35" r="4.94"/><circle class="cls-2" cx="820.68" cy="828.2" r="3.66"/><circle class="cls-2" cx="747.82" cy="775.1" r="8.97"/><circle class="cls-2" cx="795.68" cy="902.69" r="10.81"/><circle class="cls-2" cx="896.91" cy="817.96" r="6.96"/><circle class="cls-2" cx="862.39" cy="902.88" r="4.76"/><circle class="cls-2" cx="931.21" cy="676.54" r="4.94"/><circle class="cls-2" cx="848.59" cy="645.78" r="3.66"/><circle class="cls-2" cx="913.11" cy="611.38" r="8.97"/><circle class="cls-2" cx="840.66" cy="576.7" r="6.59"/><circle class="cls-2" cx="779.02" cy="609.25" r="10.81"/><circle class="cls-2" cx="851.82" cy="704.75" r="6.96"/><circle class="cls-2" cx="754.73" cy="672.58" r="4.76"/><circle class="cls-2" cx="939.63" cy="790.08" r="4.94"/><circle class="cls-2" cx="857.01" cy="759.32" r="3.66"/><circle class="cls-2" cx="921.53" cy="724.92" r="8.97"/><circle class="cls-2" cx="787.44" cy="722.8" r="10.81"/><circle class="cls-2" cx="854.99" cy="836.21" r="6.96"/><circle class="cls-2" cx="776.65" cy="788.62" r="4.76"/><circle class="cls-2" cx="730.72" cy="579.73" r="3.66"/><circle class="cls-2" cx="755.72" cy="505.24" r="10.81"/><circle class="cls-2" cx="673.02" cy="592.3" r="6.96"/><circle class="cls-2" cx="689.01" cy="505.05" r="4.76"/><circle class="cls-2" cx="607.22" cy="675.95" r="4.94"/><circle class="cls-2" cx="619.96" cy="606.1" r="3.66"/><circle class="cls-2" cx="692.83" cy="659.2" r="8.97"/><circle class="cls-2" cx="644.96" cy="531.61" r="10.81"/><circle class="cls-2" cx="543.73" cy="616.34" r="6.96"/><circle class="cls-2" cx="578.25" cy="531.42" r="4.76"/><circle class="cls-2" cx="13.36" cy="440.75" r="4.94"/><circle class="cls-2" cx="95.98" cy="471.5" r="3.66"/><circle class="cls-2" cx="31.46" cy="505.9" r="8.97"/><circle class="cls-2" cx="103.91" cy="540.59" r="6.59"/><circle class="cls-2" cx="165.55" cy="508.03" r="10.81"/><circle class="cls-2" cx="92.75" cy="412.54" r="6.96"/><circle class="cls-2" cx="189.84" cy="444.71" r="4.76"/><circle class="cls-2" cx="4.94" cy="327.21" r="4.94"/><circle class="cls-2" cx="87.56" cy="357.96" r="3.66"/><circle class="cls-2" cx="23.04" cy="392.36" r="8.97"/><circle class="cls-2" cx="157.13" cy="394.49" r="10.81"/><circle class="cls-2" cx="89.58" cy="281.07" r="6.96"/><circle class="cls-2" cx="167.92" cy="328.66" r="4.76"/><circle class="cls-2" cx="213.85" cy="537.55" r="3.66"/><circle class="cls-2" cx="188.85" cy="612.05" r="10.81"/><circle class="cls-2" cx="271.55" cy="524.99" r="6.96"/><circle class="cls-2" cx="255.56" cy="612.23" r="4.76"/><circle class="cls-2" cx="337.35" cy="441.33" r="4.94"/><circle class="cls-2" cx="324.61" cy="511.18" r="3.66"/><circle class="cls-2" cx="251.75" cy="458.08" r="8.97"/><circle class="cls-2" cx="299.61" cy="585.68" r="10.81"/><circle class="cls-2" cx="400.84" cy="500.94" r="6.96"/><circle class="cls-2" cx="366.32" cy="585.86" r="4.76"/><circle class="cls-2" cx="435.13" cy="359.52" r="4.94"/><circle class="cls-2" cx="352.52" cy="328.77" r="3.66"/><circle class="cls-2" cx="417.04" cy="294.37" r="8.97"/><circle class="cls-2" cx="344.59" cy="259.68" r="6.59"/><circle class="cls-2" cx="282.95" cy="292.24" r="10.81"/><circle class="cls-2" cx="355.75" cy="387.73" r="6.96"/><circle class="cls-2" cx="258.66" cy="355.56" r="4.76"/><circle class="cls-2" cx="443.55" cy="473.06" r="4.94"/><circle class="cls-2" cx="360.94" cy="442.31" r="3.66"/><circle class="cls-2" cx="425.46" cy="407.91" r="8.97"/><circle class="cls-2" cx="291.37" cy="405.78" r="10.81"/><circle class="cls-2" cx="358.92" cy="519.2" r="6.96"/><circle class="cls-2" cx="280.57" cy="471.61" r="4.76"/><circle class="cls-2" cx="234.65" cy="262.72" r="3.66"/><circle class="cls-2" cx="259.65" cy="188.22" r="10.81"/><circle class="cls-2" cx="176.95" cy="275.28" r="6.96"/><circle class="cls-2" cx="192.94" cy="188.03" r="4.76"/><circle class="cls-2" cx="111.15" cy="358.94" r="4.94"/><circle class="cls-2" cx="123.89" cy="289.09" r="3.66"/><circle class="cls-2" cx="196.75" cy="342.19" r="8.97"/><circle class="cls-2" cx="148.89" cy="214.59" r="10.81"/><circle class="cls-2" cx="47.66" cy="299.33" r="6.96"/><circle class="cls-2" cx="82.18" cy="214.41" r="4.76"/><circle class="cls-2" cx="365.41" cy="1043.64" r="4.94"/><circle class="cls-2" cx="362.37" cy="955.54" r="3.66"/><circle class="cls-2" cx="418.76" cy="1002.09" r="8.97"/><circle class="cls-2" cx="423.23" cy="921.89" r="6.59"/><circle class="cls-2" cx="369.64" cy="877.3" r="10.81"/><circle class="cls-2" cx="309.08" cy="980.98" r="6.96"/><circle class="cls-2" cx="301.84" cy="878.96" r="4.76"/><circle class="cls-2" cx="263.63" cy="1094.68" r="4.94"/><circle class="cls-2" cx="260.6" cy="1006.57" r="3.66"/><circle class="cls-2" cx="316.98" cy="1053.13" r="8.97"/><circle class="cls-2" cx="267.87" cy="928.33" r="10.81"/><circle class="cls-2" cx="188.74" cy="1034" r="6.96"/><circle class="cls-2" cx="202.89" cy="943.43" r="4.76"/><circle class="cls-2" cx="378.54" cy="821.4" r="3.66"/><circle class="cls-2" cx="456.94" cy="816.13" r="10.81"/><circle class="cls-2" cx="344.94" cy="772.83" r="6.96"/><circle class="cls-2" cx="431.7" cy="754.38" r="4.76"/><circle class="cls-2" cx="242.53" cy="743.86" r="4.94"/><circle class="cls-2" cx="311.97" cy="729.03" r="3.66"/><circle class="cls-2" cx="290.63" cy="816.63" r="8.97"/><circle class="cls-2" cx="390.37" cy="723.77" r="10.81"/><circle class="cls-2" cx="273.46" cy="662.45" r="6.96"/><circle class="cls-2" cx="365.13" cy="662.02" r="4.76"/><circle class="cls-2" cx="129.64" cy="684.61" r="4.94"/><circle class="cls-2" cx="132.67" cy="772.71" r="3.66"/><circle class="cls-2" cx="76.29" cy="726.16" r="8.97"/><circle class="cls-2" cx="71.82" cy="806.36" r="6.59"/><circle class="cls-2" cx="125.4" cy="850.95" r="10.81"/><circle class="cls-2" cx="185.96" cy="747.27" r="6.96"/><circle class="cls-2" cx="193.2" cy="849.29" r="4.76"/><circle class="cls-2" cx="231.41" cy="633.58" r="4.94"/><circle class="cls-2" cx="234.45" cy="721.68" r="3.66"/><circle class="cls-2" cx="178.06" cy="675.12" r="8.97"/><circle class="cls-2" cx="227.17" cy="799.92" r="10.81"/><circle class="cls-2" cx="306.31" cy="694.25" r="6.96"/><circle class="cls-2" cx="292.15" cy="784.82" r="4.76"/><circle class="cls-2" cx="116.5" cy="906.85" r="3.66"/><circle class="cls-2" cx="38.1" cy="912.12" r="10.81"/><circle class="cls-2" cx="150.1" cy="955.42" r="6.96"/><circle class="cls-2" cx="63.34" cy="973.87" r="4.76"/><circle class="cls-2" cx="252.51" cy="984.39" r="4.94"/><circle class="cls-2" cx="183.08" cy="999.22" r="3.66"/><circle class="cls-2" cx="204.42" cy="911.62" r="8.97"/><circle class="cls-2" cx="104.67" cy="1004.48" r="10.81"/><circle class="cls-2" cx="221.58" cy="1065.8" r="6.96"/><circle class="cls-2" cx="129.91" cy="1066.23" r="4.76"/><circle class="cls-2" cx="731.51" cy="435.86" r="4.94"/><circle class="cls-2" cx="751.93" cy="350.1" r="3.66"/><circle class="cls-2" cx="793.96" cy="409.93" r="8.97"/><circle class="cls-2" cx="819.53" cy="333.78" r="6.59"/><circle class="cls-2" cx="779.68" cy="276.59" r="10.81"/><circle class="cls-2" cx="693.8" cy="360.52" r="6.96"/><circle class="cls-2" cx="713.86" cy="260.22" r="4.76"/><circle class="cls-2" cx="619.85" cy="458.1" r="4.94"/><circle class="cls-2" cx="640.27" cy="372.34" r="3.66"/><circle class="cls-2" cx="682.3" cy="432.17" r="8.97"/><circle class="cls-2" cx="668.02" cy="298.83" r="10.81"/><circle class="cls-2" cx="563.71" cy="379.74" r="6.96"/><circle class="cls-2" cx="601.36" cy="296.16" r="4.76"/><circle class="cls-2" cx="803.07" cy="225.04" r="3.66"/><circle class="cls-2" cx="880.07" cy="240.74" r="10.81"/><circle class="cls-2" cx="783.55" cy="169.31" r="6.96"/><circle class="cls-2" cx="872.09" cy="174.51" r="4.76"/><circle class="cls-2" cx="692.47" cy="114.24" r="4.94"/><circle class="cls-2" cx="763.36" cy="118.34" r="3.66"/><circle class="cls-2" cx="719.56" cy="197.15" r="8.97"/><circle class="cls-2" cx="840.35" cy="134.04" r="10.81"/><circle class="cls-2" cx="743.87" cy="43.93" r="6.96"/><circle class="cls-2" cx="832.38" cy="67.81" r="4.76"/><circle class="cls-2" cx="599.32" cy="27.19" r="4.94"/><circle class="cls-2" cx="578.9" cy="112.94" r="3.66"/><circle class="cls-2" cx="536.86" cy="53.11" r="8.97"/><circle class="cls-2" cx="511.3" cy="129.26" r="6.59"/><circle class="cls-2" cx="551.15" cy="186.46" r="10.81"/><circle class="cls-2" cx="637.02" cy="102.53" r="6.96"/><circle class="cls-2" cx="616.97" cy="202.82" r="4.76"/><circle class="cls-2" cx="710.98" cy="4.95" r="4.94"/><circle class="cls-2" cx="690.56" cy="90.7" r="3.66"/><circle class="cls-2" cx="648.53" cy="30.87" r="8.97"/><circle class="cls-2" cx="662.81" cy="164.22" r="10.81"/><circle class="cls-2" cx="767.12" cy="83.3" r="6.96"/><circle class="cls-2" cx="729.46" cy="166.88" r="4.76"/><circle class="cls-2" cx="527.75" cy="238" r="3.66"/><circle class="cls-2" cx="450.76" cy="222.3" r="10.81"/><circle class="cls-2" cx="547.28" cy="293.73" r="6.96"/><circle class="cls-2" cx="458.73" cy="288.53" r="4.76"/><circle class="cls-2" cx="638.35" cy="348.81" r="4.94"/><circle class="cls-2" cx="567.47" cy="344.7" r="3.66"/><circle class="cls-2" cx="611.26" cy="265.9" r="8.97"/><circle class="cls-2" cx="490.48" cy="329" r="10.81"/><circle class="cls-2" cx="586.95" cy="419.11" r="6.96"/><circle class="cls-2" cx="498.45" cy="395.23" r="4.76"/></g></g></g></svg>