<svg xmlns="http://www.w3.org/2000/svg" viewBox="0 0 945.57 1100.62"><defs><style>.cls-1{opacity:0.15;}.cls-2{fill:none;stroke:#fff;stroke-miterlimit:10;}</style></defs><title>Ster2</title><g id="Layer_2" data-name="Layer 2"><g id="Vecttor"><g id="Ster2" class="cls-1"><circle class="cls-2" cx="509.94" cy="758.26" r="4.94"/><circle class="cls-2" cx="592.55" cy="789.02" r="3.66"/><circle class="cls-2" cx="528.03" cy="823.42" r="8.97"/><circle class="cls-2" cx="600.48" cy="858.1" r="6.59"/><circle class="cls-2" cx="662.12" cy="825.55" r="10.81"/><circle class="cls-2" cx="589.32" cy="730.05" r="6.96"/><circle class="cls-2" cx="686.41" cy="762.22" r="4.76"/><circle class="cls-2" cx="501.52" cy="644.72" r="4.94"/><circle class="cls-2" cx="584.13" cy="675.48" r="3.66"/><circle class="cls-2" cx="519.61" cy="709.88" r="8.97"/><circle class="cls-2" cx="653.7" cy="712" r="10.81"/><circle class="cls-2" cx="586.15" cy="598.59" r="6.96"/><circle class="cls-2" cx="664.5" cy="646.18" r="4.76"/><circle class="cls-2" cx="710.42" cy="855.07" r="3.66"/><circle class="cls-2" cx="685.42" cy="929.56" r="10.81"/><circle class="cls-2" cx="768.12" cy="842.5" r="6.96"/><circle class="cls-2" cx="752.13" cy="929.75" r="4.76"/><circle class="cls-2" cx="833.92" cy="758.85" r="4.94"/><circle class="cls-2" cx="821.18" cy="828.7" r="3.66"/><circle class="cls-2" cx="748.32" cy="775.6" r="8.97"/><circle class="cls-2" cx="796.18" cy="903.19" r="10.81"/><circle class="cls-2" cx="897.41" cy="818.46" r="6.96"/><circle class="cls-2" cx="862.89" cy="903.38" r="4.76"/><circle class="cls-2" cx="931.71" cy="677.04" r="4.94"/><circle class="cls-2" cx="849.09" cy="646.28" r="3.66"/><circle class="cls-2" cx="913.61" cy="611.88" r="8.97"/><circle class="cls-2" cx="841.16" cy="577.2" r="6.59"/><circle class="cls-2" cx="779.52" cy="609.75" r="10.81"/><circle class="cls-2" cx="852.32" cy="705.25" r="6.96"/><circle class="cls-2" cx="755.23" cy="673.08" r="4.76"/><circle class="cls-2" cx="940.13" cy="790.58" r="4.94"/><circle class="cls-2" cx="857.51" cy="759.82" r="3.66"/><circle class="cls-2" cx="922.03" cy="725.42" r="8.97"/><circle class="cls-2" cx="787.94" cy="723.3" r="10.81"/><circle class="cls-2" cx="855.49" cy="836.71" r="6.96"/><circle class="cls-2" cx="777.15" cy="789.12" r="4.76"/><circle class="cls-2" cx="731.22" cy="580.23" r="3.66"/><circle class="cls-2" cx="756.22" cy="505.74" r="10.81"/><circle class="cls-2" cx="673.52" cy="592.8" r="6.96"/><circle class="cls-2" cx="689.51" cy="505.55" r="4.76"/><circle class="cls-2" cx="607.72" cy="676.45" r="4.94"/><circle class="cls-2" cx="620.46" cy="606.6" r="3.66"/><circle class="cls-2" cx="693.33" cy="659.7" r="8.97"/><circle class="cls-2" cx="645.46" cy="532.11" r="10.81"/><circle class="cls-2" cx="544.23" cy="616.84" r="6.96"/><circle class="cls-2" cx="578.75" cy="531.92" r="4.76"/><circle class="cls-2" cx="13.86" cy="441.25" r="4.94"/><circle class="cls-2" cx="96.48" cy="472" r="3.66"/><circle class="cls-2" cx="31.96" cy="506.4" r="8.97"/><circle class="cls-2" cx="104.41" cy="541.09" r="6.59"/><circle class="cls-2" cx="166.05" cy="508.53" r="10.81"/><circle class="cls-2" cx="93.25" cy="413.04" r="6.96"/><circle class="cls-2" cx="190.34" cy="445.21" r="4.76"/><circle class="cls-2" cx="5.44" cy="327.71" r="4.94"/><circle class="cls-2" cx="88.06" cy="358.46" r="3.66"/><circle class="cls-2" cx="23.54" cy="392.86" r="8.97"/><circle class="cls-2" cx="157.63" cy="394.99" r="10.81"/><circle class="cls-2" cx="90.08" cy="281.57" r="6.96"/><circle class="cls-2" cx="168.42" cy="329.16" r="4.76"/><circle class="cls-2" cx="214.35" cy="538.05" r="3.66"/><circle class="cls-2" cx="189.35" cy="612.55" r="10.81"/><circle class="cls-2" cx="272.05" cy="525.49" r="6.96"/><circle class="cls-2" cx="256.06" cy="612.73" r="4.76"/><circle class="cls-2" cx="337.85" cy="441.83" r="4.94"/><circle class="cls-2" cx="325.11" cy="511.68" r="3.66"/><circle class="cls-2" cx="252.25" cy="458.58" r="8.97"/><circle class="cls-2" cx="300.11" cy="586.18" r="10.81"/><circle class="cls-2" cx="401.34" cy="501.44" r="6.96"/><circle class="cls-2" cx="366.82" cy="586.36" r="4.76"/><circle class="cls-2" cx="435.63" cy="360.02" r="4.94"/><circle class="cls-2" cx="353.02" cy="329.27" r="3.66"/><circle class="cls-2" cx="417.54" cy="294.87" r="8.97"/><circle class="cls-2" cx="345.09" cy="260.18" r="6.59"/><circle class="cls-2" cx="283.45" cy="292.74" r="10.81"/><circle class="cls-2" cx="356.25" cy="388.23" r="6.96"/><circle class="cls-2" cx="259.16" cy="356.06" r="4.76"/><circle class="cls-2" cx="444.05" cy="473.56" r="4.94"/><circle class="cls-2" cx="361.44" cy="442.81" r="3.66"/><circle class="cls-2" cx="425.96" cy="408.41" r="8.97"/><circle class="cls-2" cx="291.87" cy="406.28" r="10.81"/><circle class="cls-2" cx="359.42" cy="519.7" r="6.96"/><circle class="cls-2" cx="281.07" cy="472.11" r="4.76"/><circle class="cls-2" cx="235.15" cy="263.22" r="3.66"/><circle class="cls-2" cx="260.15" cy="188.72" r="10.81"/><circle class="cls-2" cx="177.45" cy="275.78" r="6.96"/><circle class="cls-2" cx="193.44" cy="188.53" r="4.76"/><circle class="cls-2" cx="111.65" cy="359.44" r="4.94"/><circle class="cls-2" cx="124.39" cy="289.59" r="3.66"/><circle class="cls-2" cx="197.25" cy="342.69" r="8.97"/><circle class="cls-2" cx="149.39" cy="215.09" r="10.81"/><circle class="cls-2" cx="48.16" cy="299.83" r="6.96"/><circle class="cls-2" cx="82.68" cy="214.91" r="4.76"/><circle class="cls-2" cx="365.91" cy="1044.14" r="4.94"/><circle class="cls-2" cx="362.87" cy="956.04" r="3.66"/><circle class="cls-2" cx="419.26" cy="1002.59" r="8.97"/><circle class="cls-2" cx="423.73" cy="922.39" r="6.59"/><circle class="cls-2" cx="370.14" cy="877.8" r="10.81"/><circle class="cls-2" cx="309.58" cy="981.48" r="6.96"/><circle class="cls-2" cx="302.34" cy="879.46" r="4.76"/><circle class="cls-2" cx="264.13" cy="1095.18" r="4.94"/><circle class="cls-2" cx="261.1" cy="1007.07" r="3.66"/><circle class="cls-2" cx="317.48" cy="1053.63" r="8.97"/><circle class="cls-2" cx="268.37" cy="928.83" r="10.81"/><circle class="cls-2" cx="189.24" cy="1034.5" r="6.96"/><circle class="cls-2" cx="203.39" cy="943.93" r="4.76"/><circle class="cls-2" cx="379.04" cy="821.9" r="3.66"/><circle class="cls-2" cx="457.44" cy="816.63" r="10.81"/><circle class="cls-2" cx="345.44" cy="773.33" r="6.96"/><circle class="cls-2" cx="432.2" cy="754.88" r="4.76"/><circle class="cls-2" cx="243.03" cy="744.36" r="4.94"/><circle class="cls-2" cx="312.47" cy="729.53" r="3.66"/><circle class="cls-2" cx="291.13" cy="817.13" r="8.97"/><circle class="cls-2" cx="390.87" cy="724.27" r="10.81"/><circle class="cls-2" cx="273.96" cy="662.95" r="6.96"/><circle class="cls-2" cx="365.63" cy="662.52" r="4.76"/><circle class="cls-2" cx="130.14" cy="685.11" r="4.94"/><circle class="cls-2" cx="133.17" cy="773.21" r="3.66"/><circle class="cls-2" cx="76.79" cy="726.66" r="8.97"/><circle class="cls-2" cx="72.32" cy="806.86" r="6.59"/><circle class="cls-2" cx="125.9" cy="851.45" r="10.81"/><circle class="cls-2" cx="186.46" cy="747.77" r="6.96"/><circle class="cls-2" cx="193.7" cy="849.79" r="4.76"/><circle class="cls-2" cx="231.91" cy="634.08" r="4.94"/><circle class="cls-2" cx="234.95" cy="722.18" r="3.66"/><circle class="cls-2" cx="178.56" cy="675.62" r="8.97"/><circle class="cls-2" cx="227.67" cy="800.42" r="10.81"/><circle class="cls-2" cx="306.81" cy="694.75" r="6.96"/><circle class="cls-2" cx="292.65" cy="785.32" r="4.76"/><circle class="cls-2" cx="117" cy="907.35" r="3.66"/><circle class="cls-2" cx="38.6" cy="912.62" r="10.81"/><circle class="cls-2" cx="150.6" cy="955.92" r="6.96"/><circle class="cls-2" cx="63.84" cy="974.37" r="4.76"/><circle class="cls-2" cx="253.01" cy="984.89" r="4.94"/><circle class="cls-2" cx="183.58" cy="999.72" r="3.66"/><circle class="cls-2" cx="204.92" cy="912.12" r="8.97"/><circle class="cls-2" cx="105.17" cy="1004.98" r="10.81"/><circle class="cls-2" cx="222.08" cy="1066.3" r="6.96"/><circle class="cls-2" cx="130.41" cy="1066.73" r="4.76"/><circle class="cls-2" cx="732.01" cy="436.36" r="4.94"/><circle class="cls-2" cx="752.43" cy="350.6" r="3.66"/><circle class="cls-2" cx="794.46" cy="410.43" r="8.97"/><circle class="cls-2" cx="820.03" cy="334.28" r="6.59"/><circle class="cls-2" cx="780.18" cy="277.09" r="10.81"/><circle class="cls-2" cx="694.3" cy="361.02" r="6.96"/><circle class="cls-2" cx="714.36" cy="260.72" r="4.76"/><circle class="cls-2" cx="620.35" cy="458.6" r="4.94"/><circle class="cls-2" cx="640.77" cy="372.84" r="3.66"/><circle class="cls-2" cx="682.8" cy="432.67" r="8.97"/><circle class="cls-2" cx="668.52" cy="299.33" r="10.81"/><circle class="cls-2" cx="564.21" cy="380.24" r="6.96"/><circle class="cls-2" cx="601.86" cy="296.66" r="4.76"/><circle class="cls-2" cx="803.57" cy="225.54" r="3.66"/><circle class="cls-2" cx="880.57" cy="241.24" r="10.81"/><circle class="cls-2" cx="784.05" cy="169.81" r="6.96"/><circle class="cls-2" cx="872.59" cy="175.01" r="4.76"/><circle class="cls-2" cx="692.97" cy="114.74" r="4.94"/><circle class="cls-2" cx="763.86" cy="118.84" r="3.66"/><circle class="cls-2" cx="720.06" cy="197.65" r="8.97"/><circle class="cls-2" cx="840.85" cy="134.54" r="10.81"/><circle class="cls-2" cx="744.37" cy="44.43" r="6.96"/><circle class="cls-2" cx="832.88" cy="68.31" r="4.76"/><circle class="cls-2" cx="599.82" cy="27.69" r="4.94"/><circle class="cls-2" cx="579.4" cy="113.44" r="3.66"/><circle class="cls-2" cx="537.36" cy="53.61" r="8.97"/><circle class="cls-2" cx="511.8" cy="129.76" r="6.59"/><circle class="cls-2" cx="551.65" cy="186.96" r="10.81"/><circle class="cls-2" cx="637.52" cy="103.03" r="6.96"/><circle class="cls-2" cx="617.47" cy="203.32" r="4.76"/><circle class="cls-2" cx="711.48" cy="5.45" r="4.94"/><circle class="cls-2" cx="691.06" cy="91.2" r="3.66"/><circle class="cls-2" cx="649.03" cy="31.37" r="8.97"/><circle class="cls-2" cx="663.31" cy="164.72" r="10.81"/><circle class="cls-2" cx="767.62" cy="83.8" r="6.96"/><circle class="cls-2" cx="729.96" cy="167.38" r="4.76"/><circle class="cls-2" cx="528.25" cy="238.5" r="3.66"/><circle class="cls-2" cx="451.26" cy="222.8" r="10.81"/><circle class="cls-2" cx="547.78" cy="294.23" r="6.96"/><circle class="cls-2" cx="459.23" cy="289.03" r="4.76"/><circle class="cls-2" cx="638.85" cy="349.31" r="4.94"/><circle class="cls-2" cx="567.97" cy="345.2" r="3.66"/><circle class="cls-2" cx="611.76" cy="266.4" r="8.97"/><circle class="cls-2" cx="490.98" cy="329.5" r="10.81"/><circle class="cls-2" cx="587.45" cy="419.61" r="6.96"/><circle class="cls-2" cx="498.95" cy="395.73" r="4.76"/></g></g></g></svg>