<svg xmlns="http://www.w3.org/2000/svg" xmlns:xlink="http://www.w3.org/1999/xlink" viewBox="0 0 276 160.36"><defs><style>.cls-1{fill:url(#linear-gradient);}</style><linearGradient id="linear-gradient" x1="138" x2="138" y2="160.36" gradientUnits="userSpaceOnUse"><stop offset="0.08" stop-color="#aee5e0"/><stop offset="1" stop-color="#aee5e0" stop-opacity="0"/></linearGradient></defs><title>Wolk1</title><g id="Layer_2" data-name="Layer 2"><g id="Vecttor"><path id="Wolk1" class="cls-1" d="M225,79.26a.14.14,0,0,1-.12-.14,81.79,81.79,0,0,0-159.41-23,.14.14,0,0,1-.13.1h0C29.78,56.22.58,84.62,0,120.14c0,.57,0,1.13,0,1.69a38.93,38.93,0,0,0,39,38.53H254.22A21.71,21.71,0,0,0,276,138.87v-.23A60.07,60.07,0,0,0,225,79.26Z"/></g></g></svg>