<svg xmlns="http://www.w3.org/2000/svg" viewBox="0 0 293.84 57.51"><defs><style>.cls-1{fill:#f1eded;}.cls-2{fill:#dad0cd;}.cls-3{fill:#82807f;}.cls-4{fill:#6d6d6d;}.cls-5{fill:#f6cb43;}.cls-6{fill:#fab03c;}.cls-7{fill:#00b579;}.cls-8{fill:#c1bab8;}</style></defs><title>Asset 1</title><g id="Layer_2" data-name="Layer 2"><g id="Layer_1-2" data-name="Layer 1"><path d="M90.94,14.15h4.82V39.71H90.94Zm1.76,0h15v4.64h-15Zm0,10.78h13.09v4.64H92.7Z"/><path d="M115,38.81a8.11,8.11,0,0,1-3.28-3.31,10.23,10.23,0,0,1-1.16-4.95V23.31a10.28,10.28,0,0,1,1.16-4.95,8.14,8.14,0,0,1,3.28-3.3,10.82,10.82,0,0,1,9.79,0,8.2,8.2,0,0,1,3.28,3.3,10.28,10.28,0,0,1,1.16,4.95v7.24a10.23,10.23,0,0,1-1.16,4.95,8.17,8.17,0,0,1-3.28,3.31,10.82,10.82,0,0,1-9.79,0Zm7.18-4.2A3.86,3.86,0,0,0,123.68,33a4.94,4.94,0,0,0,.54-2.35V23.19a5,5,0,0,0-.54-2.36,3.83,3.83,0,0,0-1.52-1.57,5,5,0,0,0-4.57,0,3.77,3.77,0,0,0-1.52,1.57,5,5,0,0,0-.54,2.36v7.49a4.94,4.94,0,0,0,.54,2.35,3.8,3.8,0,0,0,1.52,1.58,5,5,0,0,0,4.57,0Z"/><path d="M134.3,14.14h4.82V39.71H134.3Zm1.92,10.65h8.9a2.3,2.3,0,0,0,1.3-.37,2.49,2.49,0,0,0,.87-1.06,4,4,0,0,0,.32-1.58,3.78,3.78,0,0,0-.31-1.58,2.29,2.29,0,0,0-2.18-1.42h-8.9V14.14h9.28a7.07,7.07,0,0,1,3.71.95,6.37,6.37,0,0,1,2.48,2.68,8.68,8.68,0,0,1,.88,4,8.69,8.69,0,0,1-.88,4,6.45,6.45,0,0,1-2.49,2.68,7.15,7.15,0,0,1-3.7.95h-9.28Zm5.38,3.85,5.15-.81,6.89,11.88H147.8Z"/><path d="M154.26,14.15H173v4.64H154.26Zm7,2.1H166V39.71h-4.81Z"/><path d="M181.17,40l-2-1.18A7.93,7.93,0,0,1,176,35.46a10.81,10.81,0,0,1-1.11-5v-7a10.81,10.81,0,0,1,1.11-5,7.9,7.9,0,0,1,3.12-3.35,9,9,0,0,1,4.66-1.19,9.11,9.11,0,0,1,4.05.9A8.32,8.32,0,0,1,191,17.33a9.17,9.17,0,0,1,1.68,3.8H190.1a6.73,6.73,0,0,0-1.38-2.55,7,7,0,0,0-2.24-1.72,6.09,6.09,0,0,0-2.66-.61,6.18,6.18,0,0,0-3.34.89,6,6,0,0,0-2.23,2.52,8.54,8.54,0,0,0-.79,3.78v7a8.47,8.47,0,0,0,.79,3.77,5.93,5.93,0,0,0,2.23,2.51,6.27,6.27,0,0,0,3.34.89,6.35,6.35,0,0,0,2.66-.58,6.54,6.54,0,0,0,2.24-1.69,6.66,6.66,0,0,0,1.38-2.62h2.53a9.23,9.23,0,0,1-1.69,3.81,8.45,8.45,0,0,1-3.09,2.54,9.06,9.06,0,0,1-4,.9Z"/><path d="M197.73,14.15h2.53V39.71h-2.53Zm1.7,11.71h15.24V28.3H199.43ZM213.3,14.15h2.53V39.71H213.3Z"/><path d="M226.1,40l-1.64-.76A6.27,6.27,0,0,1,221.84,37a7.67,7.67,0,0,1-1.26-3.49h2.55a5,5,0,0,0,.88,2.2,4.16,4.16,0,0,0,1.75,1.39,6,6,0,0,0,2.48.48,4.82,4.82,0,0,0,3.54-1.23A4.57,4.57,0,0,0,233,32.91v-.77a4.45,4.45,0,0,0-1.21-3.35,4.69,4.69,0,0,0-3.41-1.19h-1.81V25.25h1.81a4.35,4.35,0,0,0,3.1-1,3.84,3.84,0,0,0,1.1-2.92V20.5a4.09,4.09,0,0,0-1.15-3.12,4.53,4.53,0,0,0-3.25-1.1,4.75,4.75,0,0,0-2.12.46,4.35,4.35,0,0,0-1.61,1.32,5.52,5.52,0,0,0-1,2.09H221a8.44,8.44,0,0,1,1.33-3.38,6.4,6.4,0,0,1,2.48-2.14,7.66,7.66,0,0,1,3.41-.74,7.09,7.09,0,0,1,5.12,1.74,6.48,6.48,0,0,1,1.81,4.9v.78a5.66,5.66,0,0,1-.85,3.12,5,5,0,0,1-2.42,1.94,4.36,4.36,0,0,1,2.73,1.93,7.09,7.09,0,0,1,1,3.85v.78a7.77,7.77,0,0,1-.86,3.81,5.66,5.66,0,0,1-2.5,2.41,8.78,8.78,0,0,1-4,.83Z"/><path d="M240.32,33.74l8.58-19.57h2.63l-8.36,19.35h13.58v2.27H240.32Zm11.55-9.06h2.44v15h-2.44Z"/><path d="M258.16,14.15h18v2.36h-18Zm7.75,1h2.53V39.71h-2.53Z"/><path d="M293.49,16,280.87,37.53h13v2.18H278V37.85l12.71-21.52H278.27V14.15h15.22Z"/><path class="cls-1" d="M16.17,44.88,7.81,53.25,4.26,49.7l8.36-8.37Z"/><path class="cls-2" d="M13,48.09l-2.78,2.77L7.68,46.27l1.74-1.74Z"/><path class="cls-3" d="M56,.05a1.17,1.17,0,0,1,1.46,1.47,31.61,31.61,0,0,1-7.89,12.85L36.44,27.49,28,35.94l-6.21,6.21-6.43-6.42,6.21-6.21L30,21.07,43.14,7.94A31.71,31.71,0,0,1,56,.05Z"/><path class="cls-4" d="M19.54,38.84a.88.88,0,0,1-.61-1.5l29-29A.87.87,0,0,1,49.14,9.6l-29,29A.87.87,0,0,1,19.54,38.84Z"/><path class="cls-4" d="M36.44,27.49,28,35.94l-6.43-6.42L30,21.07Z"/><path class="cls-5" d="M24.35,44.45,22,46.81a4.33,4.33,0,0,1-6.12,0L11.3,42.25l-.61-.61a4.25,4.25,0,0,1-.57-.7,4.34,4.34,0,0,1,.57-5.42l2.37-2.36a1.18,1.18,0,0,1,1.68,0l9.61,9.6A1.21,1.21,0,0,1,24.35,44.45Z"/><path class="cls-6" d="M24.35,44.45,22,46.81a4.33,4.33,0,0,1-6.12,0L14.4,45.35a4.33,4.33,0,0,0,6.12,0L22.88,43a1.18,1.18,0,0,0,0-1.68l1.47,1.46A1.21,1.21,0,0,1,24.35,44.45Z"/><path class="cls-7" d="M12.76,40.78,11.3,42.25l-.61-.61a4.25,4.25,0,0,1-.57-.7l1.41-1.4a.87.87,0,1,1,1.23,1.24Z"/><path class="cls-8" d="M13,49a.85.85,0,0,1-.62-.26L8.8,45.15A.88.88,0,0,1,10,43.91l3.55,3.56a.87.87,0,0,1,0,1.23A.83.83,0,0,1,13,49Z"/><path class="cls-8" d="M10.19,51.74a.88.88,0,0,1-.76-.46L6.91,46.69a.88.88,0,1,1,1.54-.84L11,50.44a.88.88,0,0,1-.77,1.3Z"/><path class="cls-5" d="M8.16,53.42a4.08,4.08,0,1,1-4.08-4.08A4.08,4.08,0,0,1,8.16,53.42Z"/><path class="cls-6" d="M7,56.31a4.1,4.1,0,0,1-5.78,0,4,4,0,0,1-.52-.65A4.08,4.08,0,0,0,6.32,50,4.09,4.09,0,0,1,7,56.31Z"/><path class="cls-1" d="M42.19,45.24l8,8,3.55-3.55-8-8Z"/><path class="cls-2" d="M45,48.09l2.78,2.77,2.51-4.59-1.74-1.74Z"/><path class="cls-2" d="M.55,1.52A1.17,1.17,0,0,1,2,.05,31.71,31.71,0,0,1,14.86,7.94L42.65,35.73l-6.43,6.42L8.44,14.37A31.61,31.61,0,0,1,.55,1.52Z"/><path class="cls-8" d="M38.46,38.84a.87.87,0,0,1-.62-.26l-29-29A.87.87,0,0,1,10.1,8.37l29,29a.88.88,0,0,1-.61,1.5Z"/><path class="cls-5" d="M47.88,40.94a4.25,4.25,0,0,1-.57.7l-.61.61-4.56,4.56a4.33,4.33,0,0,1-6.12,0l-2.37-2.36a1.21,1.21,0,0,1,0-1.69l9.61-9.6a1.18,1.18,0,0,1,1.68,0l2.37,2.36A4.34,4.34,0,0,1,47.88,40.94Z"/><path class="cls-6" d="M33.65,44.45,36,46.81a4.33,4.33,0,0,0,6.12,0l1.46-1.46a4.33,4.33,0,0,1-6.12,0L35.12,43a1.18,1.18,0,0,1,0-1.68l-1.47,1.46A1.21,1.21,0,0,0,33.65,44.45Z"/><path class="cls-7" d="M47.88,40.94a4.25,4.25,0,0,1-.57.7l-.61.61-1.46-1.47a.87.87,0,0,1,1.23-1.24Z"/><path class="cls-8" d="M45,49a.83.83,0,0,1-.62-.26.87.87,0,0,1,0-1.23L48,43.91a.88.88,0,0,1,1.24,1.24L45.65,48.7A.85.85,0,0,1,45,49Z"/><path class="cls-8" d="M47.81,51.74a.88.88,0,0,1-.77-1.3l2.51-4.59a.88.88,0,0,1,1.54.84l-2.52,4.59A.88.88,0,0,1,47.81,51.74Z"/><path class="cls-5" d="M58,53.42a4.08,4.08,0,1,1-4.08-4.08A4.08,4.08,0,0,1,58,53.42Z"/><path class="cls-6" d="M51,56.31a4.1,4.1,0,0,0,5.78,0,4,4,0,0,0,.52-.65A4.08,4.08,0,0,1,51.68,50a4.09,4.09,0,0,0-.65,6.3Z"/><path class="cls-2" d="M29,8h0a.87.87,0,0,1-.88-.87V5.91A.87.87,0,0,1,29,5h0a.88.88,0,0,1,.88.88V7.17A.87.87,0,0,1,29,8Z"/><path class="cls-2" d="M26,8.58a.88.88,0,0,1-.76-.44L24.6,7.05a.88.88,0,0,1,.33-1.2.87.87,0,0,1,1.19.33l.63,1.09a.88.88,0,0,1-.33,1.2A.92.92,0,0,1,26,8.58Z"/><path class="cls-2" d="M32,8.6a.85.85,0,0,1-.43-.12.88.88,0,0,1-.32-1.2l.63-1.09a.88.88,0,0,1,1.2-.31.87.87,0,0,1,.31,1.19l-.63,1.09A.87.87,0,0,1,32,8.6Z"/></g></g></svg>