<?xml version="1.0" encoding="utf-8"?>
<!-- Generator: Adobe Illustrator 23.0.1, SVG Export Plug-In . SVG Version: 6.00 Build 0)  -->
<svg
	version="1.1"
	id="Layer_1"
	xmlns="http://www.w3.org/2000/svg"
	xmlns:xlink="http://www.w3.org/1999/xlink"
	x="0px" y="0px"
	viewBox="0 0 100 100"
	style="enable-background:new 0 0 100 100;"
	xml:space="preserve"
	shape-rendering="geometricPrecision">
<style type="text/css">
	.st0{fill:#FFFFFF;}
</style>
<g id="Logo_1_">
	<g id="Middle_1_">
		<animateTransform attributeName="transform"
			attributeType="XML"
			type="scale"
			from="0 50 50"
			to="2 50 50"
			dur="10s"
			repeatCount="1" />
		<path class="st0" d="M33.4,30.5h4.3v-4.1h2.5v4.1h7.9v2.3h-7.9v4.7h7.2v2.3h-7.2v5.1H49v2.3H28.6v-2.3h9.1v-5.1H30v-2.3h7.7v-4.7
			h-5.3c-0.7,1.3-1.4,2.5-2.3,3.6l-2-1.6c1.8-2,3-4.6,3.8-7.8l2.5,0.5C34,28.6,33.7,29.7,33.4,30.5z"/>
		<path class="st0" d="M52.2,29.5h6.7c-0.2-0.7-0.5-1.5-0.8-2.4l2.4-0.1c0.3,1,0.6,1.8,0.8,2.6h7.7v2.1h-6.9c0.4,1,0.9,2.1,1.4,3.2
			h7V37h-5.9c0.8,1.3,1.6,2.6,2.3,3.6l-2.5,0.7c-0.9-1.2-1.7-2.7-2.6-4.3H51.9v-2.1H61c-0.4-0.9-0.9-2-1.3-3.2h-7.4V29.5z M67,46.8
			C65.6,46.9,64.2,47,63,47c-3.2,0-5.5-0.3-6.9-0.9c-2-0.8-3-2.1-3-3.9c0-1,0.3-1.8,0.8-2.4l2,1.1c-0.2,0.5-0.3,0.9-0.3,1.4
			c0,0.9,0.6,1.6,1.9,2c1.1,0.4,2.9,0.6,5.2,0.6c1.2,0,2.5-0.1,4.1-0.2L67,46.8z"/>
		<path class="st0" d="M48,50v15.5h-2.4V64h-5.7v6.6h-2.5V64h-5.5v1.8h-2.4V50H48z M31.8,52.2v3.6h5.6v-3.6H31.8z M31.8,57.9v3.9
			h5.6v-3.9H31.8z M45.5,55.8v-3.6h-5.7v3.6H45.5z M45.5,61.9v-3.9h-5.7v3.9H45.5z"/>
		<path class="st0" d="M63.6,66.7c2.4,0.8,5.3,1.4,8.7,1.8l-1.1,2.2C67.3,70,64,69.2,61.4,68c-3.1,1.5-6.4,2.5-9.7,2.8l-1.2-1.9
			c3.4-0.4,6.3-1.1,8.7-2c-1.9-1.2-3.5-2.5-4.7-4h-3.6V61H56l-1.5-1.4c1.4-0.6,2.2-1.3,2.7-2l-0.4,0.1c-1.7,0.4-3.5,0.7-5.3,1
			L50.7,57c3.1-0.3,5.4-0.6,6.9-0.8c0-0.3,0.1-0.6,0.1-0.9h-5.8v-1.5h5.8v-1.2h-6.2v-1.6h6.2v-1.8h2.4v5.1c0,2-0.3,3.5-1,4.6
			c-0.6,1-1.6,1.7-2.8,2.3h3.6v-2h2.5v2h9.5v1.9h-4C66.8,64.2,65.4,65.5,63.6,66.7z M61.4,65.8c1.5-0.8,2.7-1.8,3.6-2.9h-7.7
			C58.4,64.1,59.8,65,61.4,65.8z M65,50.9h6.2v1.6H65v1.3h5.7v1.5H65v1.3h6.8v1.6H65v2.2h-2.4V49.1H65V50.9z"/>
	</g>
	<g id="Outer_circle_1_">
		<animateTransform attributeName="transform"
			attributeType="XML"
			type="rotate"
			from="0 50 50"
			to="-360 50 50"
			dur="10s"
			repeatCount="indefinite" />
		<g>
			<path class="st0" d="M16.4,77.5c-0.6,0.5-1.5,0.3-1.9-0.3c-0.5-0.6-0.4-1.5,0.3-1.9c0.6-0.5,1.5-0.4,1.9,0.3
				C17.2,76.1,17.1,77,16.4,77.5z"/>
			<path class="st0" d="M8.3,68.5l0.9,2.1l-1.4,0.6l-2.5-5.9l1.4-0.6l0.9,2.1l5.4-2.3l0.7,1.7L8.3,68.5z"/>
			<path class="st0" d="M3.5,57.8l-0.6-4.6L4.5,53l0.3,2.8l1.3-0.2l-0.3-2.3l1.6-0.2l0.3,2.3l1.4-0.2l-0.4-3l1.6-0.2l0.6,4.8
				L3.5,57.8z"/>
			<path class="st0" d="M3.5,41.5C3.9,39.3,5.9,38,8,38.4c2.1,0.4,3.5,2.3,3.1,4.5c-0.4,2.2-2.4,3.5-4.5,3.1
				C4.5,45.6,3.1,43.7,3.5,41.5z M9.4,42.6c0.2-1.1-0.6-2.1-1.8-2.4c-1.2-0.2-2.3,0.5-2.5,1.6c-0.2,1.1,0.5,2.1,1.7,2.4
				C8.1,44.4,9.2,43.7,9.4,42.6z"/>
			<path class="st0" d="M7.3,29.9l1.3-2.3c1.1-2.1,3-2.7,5.1-1.6c2.1,1.1,2.5,3.1,1.4,5.2l-1.3,2.3L7.3,29.9z M13.6,30.5
				c0.6-1.1,0.3-2.1-0.9-2.8c-1.2-0.7-2.3-0.3-2.9,0.7l-0.4,0.7l3.8,2.1L13.6,30.5z"/>
			<path class="st0" d="M17.9,15.3c1.7-1.5,4-1.4,5.4,0.1c1.5,1.6,1.4,4-0.2,5.5c-1.7,1.5-4,1.4-5.5-0.2
				C16.2,19.2,16.3,16.8,17.9,15.3z M22,19.7c0.8-0.8,0.8-2.1,0-3c-0.8-0.9-2.1-1-2.9-0.2c-0.8,0.8-0.9,2,0,2.9
				C19.9,20.4,21.2,20.5,22,19.7z"/>
			<path class="st0" d="M27.8,8.3l2.4-1.1c0.7-0.3,1-0.4,1.4-0.4c0.9-0.1,1.7,0.4,2.2,1.4c0.3,0.7,0.4,1.7-0.2,2.3l0,0
				c0,0,0.2,0.1,0.4,0.3l2.4,1.8l-1.8,0.9l-2.3-1.7L31.5,12l1.1,2.3l-1.7,0.8L27.8,8.3z M31.6,10.3c0.5-0.2,0.7-0.7,0.5-1.2
				c-0.2-0.5-0.6-0.7-1.4-0.3L30.1,9l0.8,1.6L31.6,10.3z"/>
			<path class="st0" d="M41.4,7.5c-0.1-0.8,0.4-1.5,1.1-1.6C43.3,5.8,44,6.3,44.1,7c0.1,0.8-0.4,1.5-1.1,1.6
				C42.3,8.7,41.6,8.2,41.4,7.5z"/>
			<path class="st0" d="M52.7,3l0.4,0.1l1.6,4.8c0.1,0.4,0.3,0.9,0.3,0.9l0,0c0,0,0.2-0.4,0.4-0.8L58,3.7l0.4,0.1L58.2,11L57.7,11
				L58,5.4c0-0.4,0.1-1,0.1-1l0,0c0,0-0.3,0.6-0.5,0.9l-2.4,3.9l-0.5-0.1l-1.4-4.4c-0.1-0.4-0.3-1-0.3-1l0,0c0,0-0.1,0.6-0.1,1
				l-1.1,5.5l-0.4-0.1L52.7,3z"/>
			<path class="st0" d="M63.1,4.9l3.8,1.3l-0.1,0.4l-3.4-1.1l-0.9,2.8l2.8,0.9l-0.1,0.4l-2.8-0.9l-1,2.9l3.5,1.2l-0.1,0.4l-4-1.3
				L63.1,4.9z"/>
			<path class="st0" d="M70.6,7.7l2,1.1c1.9,1.1,2.5,2.9,1.4,5c-1.1,2-3.1,2.5-5,1.4l-2-1.1L70.6,7.7z M69.2,14.8
				c1.7,0.9,3.4,0.6,4.4-1.2c1-1.8,0.4-3.5-1.2-4.4l-1.5-0.9l-3.2,5.6L69.2,14.8z"/>
			<path class="st0" d="M78.7,12.8l0.4,0.3l-4.5,5.7l-0.4-0.3L78.7,12.8z"/>
			<path class="st0" d="M81.2,21.6l-2.2-2.2l-2.5,1.1l-0.3-0.3l7.1-3.1l0.3,0.3l-3.3,7L80.1,24L81.2,21.6z M83.2,17.5
				c0,0-0.5,0.3-0.8,0.4l-2.9,1.3l1.9,2l1.3-2.9C82.9,18,83.2,17.5,83.2,17.5L83.2,17.5z"/>
			<path class="st0" d="M90.2,25.6l1.1,2c1,1.9,0.5,3.8-1.5,4.9c-2.1,1.1-3.9,0.4-4.9-1.5l-1.1-2L90.2,25.6z M85.2,30.8
				c0.9,1.7,2.5,2.3,4.4,1.3c1.8-1,2.2-2.7,1.3-4.4l-0.8-1.6l-5.7,3L85.2,30.8z"/>
			<path class="st0" d="M94.4,34.5l1.2,3.8l-0.4,0.1l-1-3.4l-2.9,0.9l0.8,2.8l-0.4,0.1l-0.8-2.8L88,37l1.1,3.6l-0.4,0.1l-1.2-4
				L94.4,34.5z"/>
			<path class="st0" d="M90.2,42.7c0,0-0.7,0.8-0.5,2c0.1,0.9,0.8,1.5,1.6,1.4c2.1-0.3,1-3.9,3.3-4.2c1-0.1,2,0.6,2.2,1.9
				c0.2,1.2-0.4,1.9-0.4,1.9l-0.4-0.2c0,0,0.5-0.7,0.4-1.7c-0.1-1.1-1-1.6-1.7-1.5c-1.9,0.3-0.8,3.9-3.2,4.2c-1,0.1-2-0.6-2.2-1.8
				c-0.2-1.4,0.6-2.3,0.6-2.3L90.2,42.7z"/>
			<path class="st0" d="M97,49.4l0,0.4l-7.3,0.1l0-0.4L97,49.4z"/>
			<path class="st0" d="M96.6,57c-0.2,1.6-1.2,2.4-1.2,2.4l-0.3-0.3c0,0,0.9-0.8,1.1-2.1c0.3-1.8-1-3.3-2.9-3.6
				c-1.9-0.3-3.5,0.8-3.8,2.6c-0.2,1.5,0.8,2.6,0.8,2.6l1.4,0.2l0.2-1.3l0.4,0.1l-0.2,1.7l-3.3-0.5l0.1-0.4l0.6,0.1
				c0.2,0,0.3,0.1,0.3,0.1l0,0c0,0-0.9-1-0.7-2.6c0.3-2,2.1-3.3,4.2-3C95.4,53.2,96.9,55,96.6,57z"/>
			<path class="st0" d="M95,63.8l-0.1,0.4L88,66.1c-0.4,0.1-1.1,0.2-1.1,0.2l0,0c0,0,0.5,0.1,0.9,0.3l5.4,2L93,69.1l-6.8-2.5
				l0.1-0.4l6.8-1.9c0.4-0.1,1.1-0.2,1.1-0.2l0,0c0,0-0.5-0.1-0.9-0.3l-5.4-2l0.2-0.4L95,63.8z"/>
			<path class="st0" d="M91,72.9L89,76.3l-0.4-0.2l1.8-3l-2.6-1.6L86.4,74L86,73.8l1.5-2.5L85,69.7L83,72.9l-0.4-0.2l2.2-3.6
				L91,72.9z"/>
			<path class="st0" d="M86.6,79.5l-1.4,1.6c-0.4,0.5-0.7,0.7-1,0.8c-0.6,0.3-1.4,0.1-2-0.4c-0.8-0.7-1-1.7-0.5-2.4l0,0
				c0,0-0.1,0-0.3,0L78,78.3l0.4-0.4l3.6,0.8l1.4-1.6L80.8,75l0.3-0.3L86.6,79.5z M82.3,78.9c-0.6,0.7-0.5,1.6,0.2,2.3
				c0.5,0.4,1.1,0.5,1.6,0.3c0.2-0.1,0.4-0.2,0.8-0.7l1.1-1.2l-2.4-2.1L82.3,78.9z"/>
			<path class="st0" d="M77.2,88.3l-3.3,2.2l-0.2-0.3l3-1.9L75,85.7l-2.4,1.6L72.3,87l2.4-1.6l-1.7-2.6l-3.1,2l-0.2-0.3l3.5-2.3
				L77.2,88.3z"/>
			<path class="st0" d="M68.2,86.6c0,0-1-0.4-2.1,0c-0.8,0.4-1.3,1.2-0.9,2c0.8,1.9,4-0.1,4.9,2c0.4,0.9,0,2.1-1.2,2.6
				c-1.1,0.5-2,0.1-2,0.1l0.1-0.5c0,0,0.8,0.3,1.7-0.1c1-0.4,1.3-1.4,1-2c-0.8-1.8-3.9,0.3-4.9-1.9c-0.4-1,0-2.1,1.2-2.6
				c1.3-0.6,2.4-0.1,2.4-0.1L68.2,86.6z"/>
			<path class="st0" d="M61.8,95.1l2.6-0.7l0.1,0.4l-5.7,1.5l-0.1-0.4l2.6-0.7l-1.7-6.7l0.4-0.1L61.8,95.1z"/>
			<path class="st0" d="M55.9,89.9L55.2,90l-0.1-0.7l0.6-0.1L55.9,89.9z"/>
			<path class="st0" d="M52.8,90l-1.7,0l0.2,5.9c0,0.2,0,0.4,0,0.4l0,0c0,0,0.1-0.1,0.4-0.5l0.8-0.9l0.3,0.3L51.3,97l-0.4,0
				l-0.2-6.9l-1.6,0l0-0.4l3.7-0.1L52.8,90z"/>
			<path class="st0" d="M47,89.8l-0.3,0.4c0,0-0.4-0.3-1-0.4c-1.7-0.2-2.7,1.4-3,3l0,0c0.5-0.6,1.3-0.8,2.2-0.7
				c1.3,0.2,2.1,1.2,1.9,2.6c-0.2,1.6-1.3,2.3-2.5,2.1c-1.6-0.2-2.3-1.9-2.1-3.7c0.2-1.8,1.4-4,3.6-3.7C46.5,89.4,47,89.8,47,89.8z
				 M42.6,93.6c-0.1,1,0.5,2.5,1.7,2.7c1.1,0.1,1.9-0.6,2-1.7c0.1-1.2-0.5-2-1.5-2.1C43.7,92.3,42.7,93,42.6,93.6z"/>
			<path class="st0" d="M40.1,88.7L39.8,89c0,0-0.4-0.4-0.9-0.6c-1.6-0.5-2.9,0.9-3.5,2.4l0,0c0.6-0.5,1.4-0.6,2.3-0.3
				c1.2,0.4,1.9,1.5,1.5,2.9c-0.5,1.5-1.7,2-2.9,1.7c-1.5-0.5-2-2.2-1.4-4c0.5-1.7,2.1-3.7,4.2-3C39.7,88.2,40.1,88.7,40.1,88.7z
				 M35.1,91.7c-0.3,1,0,2.6,1.2,2.9c1.1,0.3,1.9-0.3,2.3-1.4c0.3-1.1-0.1-2-1.2-2.3C36.4,90.6,35.3,91.1,35.1,91.7z"/>
			<path class="st0" d="M30.9,89.5c0.3,0.5,0.5,1.1,0.2,1.8c-0.4,0.8-1.5,1.3-2.7,0.6c-1.2-0.6-1.6-1.7-1.1-2.6
				c0.5-1,1.7-1.4,1.8-1.4c-0.4-0.6-0.6-1.2-0.2-1.9c0.5-1,1.9-1.4,3-0.8c1.1,0.6,1.8,1.8,1.1,3.1C32.4,89.4,30.9,89.5,30.9,89.5z
				 M29.4,88.2c-0.2,0-1.2,0.3-1.7,1.2c-0.4,0.8,0,1.6,0.9,2c0.9,0.5,1.8,0.2,2.1-0.4C31.2,90.1,30.1,89.2,29.4,88.2z M30.7,89.1
				c0.2,0,1.4-0.1,2-1c0.5-1-0.1-2-0.9-2.5c-0.8-0.4-2-0.3-2.4,0.6C28.8,87.1,29.9,88.1,30.7,89.1z"/>
		</g>
	</g>
</g>
</svg>
