<svg xmlns="http://www.w3.org/2000/svg" xmlns:xlink="http://www.w3.org/1999/xlink" viewBox="0 0 338 196.38"><defs><style>.cls-1{fill:url(#linear-gradient);}</style><linearGradient id="linear-gradient" x1="169" x2="169" y2="196.38" gradientUnits="userSpaceOnUse"><stop offset="0.08" stop-color="#aee5e0"/><stop offset="1" stop-color="#aee5e0" stop-opacity="0"/></linearGradient></defs><title>Wolk2</title><g id="Layer_2" data-name="Layer 2"><g id="Vecttor"><path id="Wolk2" class="cls-1" d="M275.5,97.06a.16.16,0,0,1-.14-.16A100.17,100.17,0,0,0,80.14,68.73a.17.17,0,0,1-.16.12h0c-43.51,0-79.27,34.78-80,78.28,0,.69,0,1.38,0,2.06a47.66,47.66,0,0,0,47.76,47.19H311.32A26.59,26.59,0,0,0,338,170.06v-.28A73.57,73.57,0,0,0,275.5,97.06Z"/></g></g></svg>