<svg xmlns="http://www.w3.org/2000/svg" xmlns:xlink="http://www.w3.org/1999/xlink" viewBox="0 0 1794 1794"><defs><style>.cls-1{opacity:0.75;fill:url(#linear-gradient);}.cls-2{opacity:0.5;fill:url(#linear-gradient-2);}.cls-3{opacity:0.25;fill:url(#linear-gradient-3);}.cls-4,.cls-5,.cls-6{opacity:0.2;}.cls-4{fill:url(#linear-gradient-4);}.cls-5{fill:url(#linear-gradient-5);}.cls-6{fill:url(#linear-gradient-6);}.cls-7{fill:#f1c40f;}.cls-8{fill:#f39c12;}.cls-9{fill:#e67e22;}</style><linearGradient id="linear-gradient" x1="897" y1="712" x2="897" y2="1082" gradientUnits="userSpaceOnUse"><stop offset="0" stop-color="#e6435a" stop-opacity="0"/><stop offset="1" stop-color="#e6435a"/></linearGradient><linearGradient id="linear-gradient-2" y1="610" y2="1184" xlink:href="#linear-gradient"/><linearGradient id="linear-gradient-3" y1="492" y2="1302" xlink:href="#linear-gradient"/><linearGradient id="linear-gradient-4" y1="372" y2="1422" xlink:href="#linear-gradient"/><linearGradient id="linear-gradient-5" y1="210" y2="1584" xlink:href="#linear-gradient"/><linearGradient id="linear-gradient-6" y1="0" y2="1794" xlink:href="#linear-gradient"/></defs><title>Zon</title><g id="Layer_2" data-name="Layer 2"><g id="Vecttor"><g id="Zon"><circle class="cls-1" cx="897" cy="897" r="185"/><circle class="cls-2" cx="897" cy="897" r="287"/><circle class="cls-3" cx="897" cy="897" r="405"/><circle class="cls-4" cx="897" cy="897" r="525"/><circle class="cls-5" cx="897" cy="897" r="687"/><circle class="cls-6" cx="897" cy="897" r="897"/><path class="cls-7" d="M994.58,799.42a138.09,138.09,0,0,1-13.34,206.9,131.33,131.33,0,0,1-11.1,7.73h0a138.37,138.37,0,0,1-110.65,15.77q-4.87-1.36-9.63-3.1A136.78,136.78,0,0,1,818,1010.16q-3.71-2.6-7.27-5.46a139.44,139.44,0,0,1-23.87-24.58c-1.85-2.44-3.61-4.94-5.27-7.46a136.83,136.83,0,0,1-15.74-32.72Q764.21,935,763,930a138.09,138.09,0,0,1,31.25-125.16c1.67-1.85,3.4-3.68,5.18-5.46a138.86,138.86,0,0,1,12.32-10.95l2-1.52A138,138,0,0,1,994.58,799.42Z"/><path class="cls-8" d="M939.07,889.05l-36.94,37c.28-.28.57-.57.84-.89a21.6,21.6,0,0,1-14.41,5.48,20.15,20.15,0,0,1-3.47-.29,21.43,21.43,0,0,1-11.83-6,21.69,21.69,0,0,1-.84-29.7c-.31.27-.6.56-.88.84l36.94-36.95a21.63,21.63,0,0,0-30.59-30.59l-26,26a21.63,21.63,0,0,1-15.3,6.31,21.07,21.07,0,0,1-3.46-.28.16.16,0,0,1-.1,0,17.25,17.25,0,0,1-1.87-.39,21.59,21.59,0,0,1-9.87-36.22l.57-.57A21.63,21.63,0,0,0,813.71,787l-2,1.52a138.86,138.86,0,0,0-12.32,10.95c-1.78,1.78-3.51,3.61-5.18,5.46A138.17,138.17,0,0,0,763,930q1.23,5,2.83,9.9a136.83,136.83,0,0,0,15.74,32.72c1.66,2.52,3.42,5,5.27,7.46a139.44,139.44,0,0,0,23.87,24.58q3.56,2.87,7.27,5.46a136.78,136.78,0,0,0,31.89,16.57q4.75,1.74,9.63,3.1a138.22,138.22,0,0,0,110.65-15.77h0a131.33,131.33,0,0,0,11.1-7.73,138.89,138.89,0,0,0,42.16-53.83,21.68,21.68,0,0,0-27.76,2.38l-11,11a21.9,21.9,0,0,0,2.85-3.51,21.63,21.63,0,0,1-29.93-29.93,21.83,21.83,0,0,0-3.51,2.84l15.59-15.59a21.64,21.64,0,0,0-30.6-30.6Z"/><path class="cls-9" d="M898.06,917.34l-36.95,36.94c.29-.28.58-.57.85-.88a21.72,21.72,0,0,1-29.71-.84,21.5,21.5,0,0,1-6-11.83,21.19,21.19,0,0,1-.28-3.47,21.59,21.59,0,0,1,5.47-14.41c-.31.27-.6.56-.89.84l37-36.94a21.64,21.64,0,0,0-30.6-30.6l-15.59,15.59c.41-.41.8-.83,1.16-1.27a19.82,19.82,0,0,0,1.68-2.24,20.53,20.53,0,0,1-3.54,1.84A21.58,21.58,0,0,1,791,853.56a21.19,21.19,0,0,1-.28-3.47,21.68,21.68,0,0,1,3.47-11.79,21.83,21.83,0,0,0-3.5,2.85l11-11a21.67,21.67,0,0,0,0-30.61l-.52-.49q-3.51,2.77-6.89,5.8A138.17,138.17,0,0,0,763,930q1.23,5,2.83,9.9a136.83,136.83,0,0,0,15.74,32.72c1.66,2.52,3.42,5,5.27,7.46a139.44,139.44,0,0,0,23.87,24.58q3.56,2.87,7.27,5.46a136.78,136.78,0,0,0,31.89,16.57q4.75,1.74,9.63,3.1a138.22,138.22,0,0,0,110.65-15.77h0a21.54,21.54,0,0,0-17.53-16.15,21.6,21.6,0,0,0-18.76,6l-.58.57a21.69,21.69,0,0,1-30.59,0,21.39,21.39,0,0,1-6-11.85,21.07,21.07,0,0,1-.29-3.46,21.6,21.6,0,0,1,6.32-15.3l26-26a21.63,21.63,0,0,0-30.6-30.59Z"/></g></g></g></svg>